<?xml version="1.0" encoding="UTF-8"?>
<svg version="1.1" xmlns="http://www.w3.org/2000/svg" width="512" height="512">
<path d="M0 0 C12.79411712 15.96819153 12.79411712 15.96819153 18.265625 24.390625 C22.17431774 30.27127083 26.32441517 35.99040573 30.40771484 41.75048828 C31.93842274 43.9130063 33.46436785 46.07878381 34.98828125 48.24609375 C40.11275168 55.53136274 45.27506056 62.78638304 50.5 70 C56.22554355 77.90475728 61.8708401 85.86328072 67.48535156 93.84716797 C70.13216782 97.60919662 72.78502975 101.36695678 75.4375 105.125 C75.92162354 105.81150635 76.40574707 106.4980127 76.90454102 107.20532227 C77.36787842 107.86201904 77.83121582 108.51871582 78.30859375 109.1953125 C78.75315918 109.82727539 79.19772461 110.45923828 79.65576172 111.11035156 C80.57817563 112.40702495 81.51280049 113.69507228 82.45751953 114.97558594 C86 119.79594749 86 119.79594749 86 122 C86.66 122 87.32 122 88 122 C89.40234375 123.79296875 89.40234375 123.79296875 90.9375 126.1875 C91.44152344 126.96480469 91.94554687 127.74210937 92.46484375 128.54296875 C94.00700793 131.01121626 95.50562086 133.50261209 97 136 C87.24631336 136.0697072 77.49268662 136.12291612 67.738801 136.15543652 C63.20899681 136.17104973 58.67936387 136.19220805 54.1496582 136.22631836 C49.77299773 136.25906753 45.39650132 136.27688564 41.01972771 136.28463173 C39.35527911 136.29014744 37.69083884 136.30091792 36.02646065 136.31719017 C14.70417439 136.51724152 14.70417439 136.51724152 6 129 C2.0692479 123.22637496 -0.12783884 118.12308356 -0.12025452 111.11517334 C-0.12162918 110.13363281 -0.12300385 109.15209229 -0.12442017 108.14080811 C-0.12082489 107.07050354 -0.11722961 106.00019897 -0.11352539 104.89746094 C-0.11367142 103.76546265 -0.11381744 102.63346436 -0.1139679 101.46716309 C-0.11327084 97.72288095 -0.10548804 93.97864846 -0.09765625 90.234375 C-0.09579134 87.63934354 -0.09436778 85.04431172 -0.09336853 82.44927979 C-0.08993958 76.31535805 -0.08205683 70.18145682 -0.07201904 64.04754281 C-0.06083806 57.06330488 -0.05534245 50.0790661 -0.05032361 43.09482145 C-0.03987369 28.72987139 -0.02228661 14.36493633 0 0 Z " fill="#000000" transform="translate(343,230)"/>
<path d="M0 0 C10.77945817 -0.09294544 21.55881999 -0.16388921 32.33859825 -0.20724869 C37.34485469 -0.22806591 42.35083566 -0.25627577 47.35693359 -0.30175781 C52.19396269 -0.34542556 57.03072789 -0.36918116 61.867939 -0.37950897 C63.70741552 -0.38686293 65.54687866 -0.40122304 67.38624191 -0.42292023 C88.89946237 -0.66644932 88.89946237 -0.66644932 96.9375 6.6875 C101.59579101 14.16899768 102.43634933 21.25584597 102.34057617 29.93579102 C102.34123329 31.51784081 102.34123329 31.51784081 102.34190369 33.1318512 C102.33982742 36.58939663 102.31655096 40.04644639 102.29296875 43.50390625 C102.28736867 45.91242712 102.28310052 48.32095141 102.28010559 50.72947693 C102.26868932 57.04730783 102.23924969 63.36492956 102.20599365 69.68267822 C102.1752234 76.13803275 102.1615854 82.59342129 102.14648438 89.04882812 C102.11437702 101.69930763 102.06380191 114.34964265 102 127 C100.62437146 125.71034824 99.29233607 124.37310707 98 123 C98 122.34 98 121.68 98 121 C96.515 120.505 96.515 120.505 95 120 C93.59731078 118.30508386 92.27609654 116.542165 91 114.75 C87.67600234 110.16498492 84.1998 105.7871109 80.5 101.5 C77.00546546 97.43754319 73.68134346 93.31753755 70.5 89 C66.83818645 84.03227086 62.95541747 79.32695285 58.9453125 74.64233398 C55.8139959 70.97941922 52.79935726 67.25663806 49.8671875 63.43359375 C47.47389725 60.31430542 45.05163265 57.21838578 42.625 54.125 C41.92540161 53.23131714 41.92540161 53.23131714 41.21166992 52.31958008 C37.42805184 47.50281624 33.53465417 42.78883751 29.58203125 38.109375 C28 36 28 36 28 34 C27.34 34 26.68 34 26 34 C24.58084349 32.2808104 23.24061434 30.4962319 21.9375 28.6875 C18.04027635 23.33092811 13.93777439 18.234298 9.65234375 13.1796875 C8 11 8 11 8 9 C7.34 9 6.68 9 6 9 C4.4921875 7.03125 4.4921875 7.03125 2.875 4.5 C2.33617187 3.6646875 1.79734375 2.829375 1.2421875 1.96875 C0.83226562 1.3190625 0.42234375 0.669375 0 0 Z " fill="#000000" transform="translate(221,146)"/>
<path d="M0 0 C1.5 1.375 1.5 1.375 3 3 C3 3.66 3 4.32 3 5 C3.66 5 4.32 5 5 5 C6.31274414 6.51293945 6.31274414 6.51293945 7.78515625 8.61328125 C8.31560547 9.36673828 8.84605469 10.12019531 9.39257812 10.89648438 C9.94365234 11.69376953 10.49472656 12.49105469 11.0625 13.3125 C11.61744141 14.09818359 12.17238281 14.88386719 12.74414062 15.69335938 C16.86248666 21.58745997 16.86248666 21.58745997 18 25 C18.66 25 19.32 25 20 25 C21.41015625 26.765625 21.41015625 26.765625 23.0625 29.25 C25.64798889 33.04876134 28.29127178 36.77182686 31.0625 40.4375 C34.39695479 44.85324658 37.69258975 49.29454006 40.96582031 53.75585938 C47.22747511 62.28980599 53.58681482 70.73926106 60.03515625 79.1328125 C64.07046338 84.38683655 68.03461531 89.69305526 72 95 C73.01900391 96.35351562 73.01900391 96.35351562 74.05859375 97.734375 C78.86045254 104.11335805 83.62502284 110.51981543 88.375 116.9375 C88.98239014 117.75484619 89.58978027 118.57219238 90.21557617 119.41430664 C90.79154541 120.19410889 91.36751465 120.97391113 91.9609375 121.77734375 C92.47446777 122.47077881 92.98799805 123.16421387 93.51708984 123.87866211 C95.13192554 126.18872259 96.56017157 128.57789417 98 131 C88.26358422 131.06974993 78.52722865 131.12293758 68.79061317 131.15543652 C64.26868439 131.17104052 59.74692753 131.19218167 55.22509766 131.22631836 C50.85491641 131.25910082 46.48489974 131.27689254 42.11460495 131.28463173 C40.45377388 131.29014154 38.79295102 131.30090021 37.1321907 131.31719017 C25.25882404 131.42893873 14.64295747 131.46818004 5.625 122.83203125 C1.05145418 117.6757981 -0.12791999 111.92999123 -0.12025452 105.22270203 C-0.12162918 104.29027176 -0.12300385 103.35784149 -0.12442017 102.39715576 C-0.12082489 101.3865509 -0.11722961 100.37594604 -0.11352539 99.3347168 C-0.11367142 98.2610939 -0.11381744 97.18747101 -0.1139679 96.08131409 C-0.11327196 92.53726166 -0.10549444 88.99326198 -0.09765625 85.44921875 C-0.09579094 82.99013803 -0.09436757 80.53105693 -0.09336853 78.07197571 C-0.08955227 71.60292534 -0.07972956 65.13389745 -0.06866455 58.66485596 C-0.0584313 52.06238102 -0.0538668 45.45990245 -0.04882812 38.85742188 C-0.03810652 25.90493833 -0.02123326 12.95247036 0 0 Z " fill="#000000" transform="translate(219,235)"/>
<path d="M0 0 C10.53595962 -0.09290533 21.07182089 -0.16386899 31.60810757 -0.20724869 C36.50117456 -0.2280746 41.39396016 -0.25630051 46.28686523 -0.30175781 C51.01366483 -0.34539436 55.74019469 -0.36917464 60.46718025 -0.37950897 C62.26561793 -0.38686849 64.06404176 -0.40123967 65.86236382 -0.42292023 C76.45607358 -0.5454949 85.20789656 -0.63368276 93.8125 6.25 C99.37121349 13.23809696 100.58239337 19.07823412 100.45410156 27.9140625 C100.45468567 28.9783699 100.45526978 30.04267731 100.45587158 31.13923645 C100.45309904 34.6348301 100.42204507 38.12955647 100.390625 41.625 C100.38315969 44.05736831 100.37746813 46.48974265 100.37347412 48.92211914 C100.3582408 55.30744182 100.31897823 61.69239748 100.2746582 68.07757568 C100.23365616 74.59984371 100.21545254 81.12217134 100.1953125 87.64453125 C100.15248225 100.4298436 100.08503309 113.21490223 100 126 C94.49551351 120.53030459 94.49551351 120.53030459 92.38671875 117.80078125 C91.94755127 117.23657471 91.50838379 116.67236816 91.0559082 116.09106445 C90.6043335 115.50413818 90.15275879 114.91721191 89.6875 114.3125 C88.71657688 113.06216516 87.74522025 111.81216684 86.7734375 110.5625 C86.30131836 109.9540625 85.82919922 109.345625 85.34277344 108.71875 C83.52679384 106.39429612 81.67032747 104.10357577 79.8125 101.8125 C76.32174742 97.47593879 73.0682856 92.99347918 69.859375 88.4453125 C68.05626727 86.07399855 66.11978349 84.08613613 64 82 C62.89238168 80.64448616 61.8093262 79.26857961 60.75 77.875 C58.28241062 74.65981468 55.78948972 71.47125054 53.25 68.3125 C47.63168454 61.3085499 42.10377705 54.23364089 36.56347656 47.16796875 C35.14687084 45.36167558 33.72974833 43.555789 32.3125 41.75 C31.85415771 41.16541016 31.39581543 40.58082031 30.92358398 39.97851562 C28.22775017 36.54507375 25.49961826 33.14066606 22.75 29.75 C20.11982052 26.48513508 17.68131739 23.14648281 15.3125 19.6875 C12.81668584 16.05671153 10.1608849 13.07983657 7 10 C1.67961165 3.3592233 1.67961165 3.3592233 0 0 Z " fill="#000000" transform="translate(340,146)"/>
<path d="M0 0 C0.33 0 0.66 0 1 0 C1.15394307 23.36542379 1.30197519 46.73087836 1.4429636 70.09638405 C1.50856432 80.94529801 1.57610187 91.79419347 1.64819336 102.64306641 C1.71102067 112.09853517 1.77021974 121.55401849 1.82505554 131.0095371 C1.8542195 136.01649777 1.88520463 141.02343227 1.92053413 146.03035355 C1.95373163 150.74324818 1.98207682 155.45614712 2.00670624 160.16909409 C2.01659811 161.89847173 2.02826035 163.6278403 2.04183006 165.35719299 C2.06010302 167.71978878 2.07198313 170.08233476 2.08229065 172.44497681 C2.08909444 173.12787045 2.09589823 173.8107641 2.10290819 174.51435149 C2.11209795 178.44900271 1.75577136 182.13939414 1 186 C-0.7049381 185.03052539 -2.40926162 184.059942 -4.109375 183.08203125 C-5.71073998 182.16554757 -7.3229941 181.26813092 -8.9375 180.375 C-9.618125 179.92125 -10.29875 179.4675 -11 179 C-11 178.34 -11 177.68 -11 177 C-11.71715903 176.72643268 -12.43431807 176.45286535 -13.17320919 176.17100811 C-18.12799162 174.11847193 -22.35439765 172.02215546 -26 168 C-27.48530915 163.30110958 -27.40157711 158.65962988 -27.34155273 153.77807617 C-27.36003557 152.3351012 -27.38271577 150.89217483 -27.40925598 149.44932556 C-27.46750076 145.54349298 -27.46236523 141.64017544 -27.44204974 137.73405242 C-27.43073 134.46625891 -27.45025807 131.19893976 -27.46959931 127.93120652 C-27.51465128 120.21666502 -27.50804128 112.50335642 -27.46850586 104.78881836 C-27.42865043 96.84805684 -27.47255457 88.91092283 -27.55852169 80.97060794 C-27.62969656 74.13783177 -27.65004377 67.3061864 -27.62985379 60.47306997 C-27.61821908 56.39863529 -27.62500336 52.3264672 -27.68014336 48.25234032 C-27.7297121 44.41653757 -27.71530536 40.5860077 -27.65333366 36.75043678 C-27.64102565 35.35011 -27.65046722 33.94938119 -27.68425369 32.54940796 C-27.91240286 22.29540874 -27.91240286 22.29540874 -24.72217679 18.46626115 C-21.15335021 15.11966082 -17.13575629 12.5852761 -13 10 C-11.4220549 8.811907 -9.85502457 7.60873159 -8.3125 6.375 C-5.24861878 4 -5.24861878 4 -3 4 C-3 3.34 -3 2.68 -3 2 C-2.01 2 -1.02 2 0 2 C0 1.34 0 0.68 0 0 Z " fill="#000000" transform="translate(195,163)"/>
<path d="M0 0 C1.31870338 -0.00043808 1.31870338 -0.00043808 2.66404724 -0.00088501 C5.53712224 0.00049572 8.40992992 0.01599706 11.28295898 0.03173828 C13.28791665 0.03547289 15.29287615 0.03831774 17.2978363 0.04031372 C22.55031457 0.04791491 27.80268055 0.06753294 33.05511475 0.08972168 C38.42466717 0.11025612 43.79423791 0.11933163 49.16381836 0.12939453 C59.68144556 0.15078238 70.19898977 0.18487552 80.71655273 0.22705078 C77.95238389 2.32811322 75.19633614 4.18169067 72.18139648 5.90673828 C55.61638596 15.48116309 39.84605804 25.83325924 24.70141602 37.53393555 C22.05232774 39.56717513 19.90983183 41.16262441 16.71655273 42.22705078 C16.71655273 42.88705078 16.71655273 43.54705078 16.71655273 44.22705078 C15.22174216 45.53272205 13.66673673 46.76956103 12.09155273 47.97705078 C-7.34605641 63.58224472 -22.14033483 82.13139039 -29.28344727 106.22705078 C-29.61344727 106.22705078 -29.94344727 106.22705078 -30.28344727 106.22705078 C-30.37642472 95.07370945 -30.4473526 83.92046144 -30.49069595 72.76681042 C-30.51150624 67.58683193 -30.53970329 62.40712003 -30.58520508 57.22729492 C-30.62889771 52.22168191 -30.65263362 47.21632415 -30.66295624 42.21053505 C-30.67030577 40.30769144 -30.684657 38.40486064 -30.70636749 36.50212669 C-30.96169562 13.18206632 -30.96169562 13.18206632 -24.41583252 6.24894714 C-17.57625152 0.29439191 -8.70476608 -0.0773497 0 0 Z " fill="#000000" transform="translate(87.283447265625,145.77294921875)"/>
<path d="M0 0 C0.99 0.495 0.99 0.495 2 1 C0.71283353 2.00578589 -0.57988658 3.00446798 -1.875 4 C-2.59429687 4.556875 -3.31359375 5.11375 -4.0546875 5.6875 C-6 7 -6 7 -8 7 C-8 7.66 -8 8.32 -8 9 C-9.49325434 10.18850856 -11.04901283 11.2986053 -12.625 12.375 C-18.16167193 16.27943228 -23.25236069 20.55158323 -28.31494141 25.05029297 C-30.86388906 27.29032122 -32.74511815 28.91503938 -36 30 C-36 30.66 -36 31.32 -36 32 C-37.43579102 33.41674805 -37.43579102 33.41674805 -39.44140625 35.07421875 C-44.17382667 39.09943594 -48.55776428 43.40985372 -52.9375 47.8125 C-53.70384766 48.57498047 -54.47019531 49.33746094 -55.25976562 50.12304688 C-55.98744141 50.85201172 -56.71511719 51.58097656 -57.46484375 52.33203125 C-58.44892212 53.31780151 -58.44892212 53.31780151 -59.45288086 54.32348633 C-61.08270479 55.93380588 -61.08270479 55.93380588 -62 58 C-62.66 58 -63.32 58 -64 58 C-64.25523437 58.56203125 -64.51046875 59.1240625 -64.7734375 59.703125 C-66.15690623 62.29382441 -67.81929191 64.43351393 -69.625 66.75 C-80.09172964 81.00378273 -88.08287012 98.03298121 -86 116 C-83.09062456 129.91530459 -75.53305764 142.85045057 -65.26171875 152.66015625 C-64 154 -64 154 -64 156 C-63.01 156.33 -62.02 156.66 -61 157 C-61 157.66 -61 158.32 -61 159 C-60.34 159 -59.68 159 -59 159 C-59 159.66 -59 160.32 -59 161 C-58.01 161.33 -57.02 161.66 -56 162 C-56 162.66 -56 163.32 -56 164 C-55.34 164 -54.68 164 -54 164 C-54 164.66 -54 165.32 -54 166 C-53.43925781 166.24105469 -52.87851563 166.48210937 -52.30078125 166.73046875 C-49.52556993 168.2617823 -47.49968649 170.14596305 -45.1875 172.3125 C-42.1911529 175.07357837 -39.24441 177.64547772 -35.875 179.9375 C-34.92625 180.618125 -33.9775 181.29875 -33 182 C-33 182.66 -33 183.32 -33 184 C-32.42024414 184.27779297 -31.84048828 184.55558594 -31.24316406 184.84179688 C-27.54308146 186.7522444 -24.18336097 189.1524546 -20.75 191.5 C-20.00492187 191.99886719 -19.25984375 192.49773437 -18.4921875 193.01171875 C-17.78835937 193.49253906 -17.08453125 193.97335937 -16.359375 194.46875 C-15.71452148 194.90638672 -15.06966797 195.34402344 -14.40527344 195.79492188 C-13.9415332 196.19259766 -13.47779297 196.59027344 -13 197 C-13 197.66 -13 198.32 -13 199 C-12.29488281 199.24492187 -11.58976562 199.48984375 -10.86328125 199.7421875 C-7.60236963 201.17467528 -5.03865885 202.99521869 -2.1875 205.125 C-1.21167969 205.84945312 -0.23585938 206.57390625 0.76953125 207.3203125 C1.87361328 208.15175781 1.87361328 208.15175781 3 209 C0 210 0 210 -1.92602539 209.27490234 C-3.00098267 208.68636475 -3.00098267 208.68636475 -4.09765625 208.0859375 C-4.89518311 207.65651855 -5.69270996 207.22709961 -6.5144043 206.78466797 C-7.35527588 206.31947754 -8.19614746 205.85428711 -9.0625 205.375 C-10.77826011 204.447203 -12.49440276 203.52011306 -14.2109375 202.59375 C-15.03561523 202.14515625 -15.86029297 201.6965625 -16.70996094 201.234375 C-20.75537628 199.0538185 -24.87107319 197.01669947 -29 195 C-29 194.34 -29 193.68 -29 193 C-30.20269531 192.66355469 -30.20269531 192.66355469 -31.4296875 192.3203125 C-35.9758097 190.63914258 -39.95766568 188.33020912 -44.125 185.875 C-44.96232666 185.38652588 -45.79965332 184.89805176 -46.66235352 184.39477539 C-52.470026 180.97813581 -58.11078999 177.39382736 -63.65234375 173.55859375 C-65.71969979 172.18608949 -67.75441675 171.04724416 -70 170 C-70 169.34 -70 168.68 -70 168 C-70.68320313 167.77828125 -71.36640625 167.5565625 -72.0703125 167.328125 C-75.80972697 165.63292377 -78.6984556 163.32232438 -81.875 160.75 C-82.49197754 160.25636963 -83.10895508 159.76273926 -83.74462891 159.25415039 C-85.5021808 157.84305017 -87.25198667 156.42288705 -89 155 C-90.22203125 154.01580078 -90.22203125 154.01580078 -91.46875 153.01171875 C-93.02422843 151.72717406 -94.52172317 150.37268563 -96 149 C-96 148.34 -96 147.68 -96 147 C-96.639375 146.731875 -97.27875 146.46375 -97.9375 146.1875 C-100 145 -100 145 -101 142 C-101.66 142 -102.32 142 -103 142 C-111.2605949 133.76120087 -118.06461521 121.08513906 -118.25 109.375 C-118.11343476 96.88686753 -112.5957136 86.64860917 -105 77 C-104.34 77 -103.68 77 -103 77 C-102.731875 76.41734375 -102.46375 75.8346875 -102.1875 75.234375 C-100.98519009 72.97213399 -99.66174087 71.19423682 -98 69.25 C-97.484375 68.63640625 -96.96875 68.0228125 -96.4375 67.390625 C-95 66 -95 66 -93 66 C-93 65.34 -93 64.68 -93 64 C-91.671875 62.625 -91.671875 62.625 -89.75 61 C-89.01910156 60.37996094 -88.28820312 59.75992188 -87.53515625 59.12109375 C-86.69855469 58.42113281 -85.86195312 57.72117188 -85 57 C-84.07058594 56.20722656 -83.14117187 55.41445312 -82.18359375 54.59765625 C-63.75 39 -63.75 39 -60 39 C-60 38.34 -60 37.68 -60 37 C-57.91015625 35.484375 -57.91015625 35.484375 -55.0625 33.75 C-51.50335359 31.54996569 -47.96796826 29.34135062 -44.5 27 C-33.08022938 19.3668898 -21.31808533 12.36002894 -9.45507812 5.43994141 C-7.90954802 4.53346402 -6.37068087 3.6154319 -4.84179688 2.68115234 C-3.26168376 1.72891768 -1.63512327 0.85433028 0 0 Z " fill="#000000" transform="translate(195,151)"/>
<path d="M0 0 C1.84829449 2.77244173 2.67361164 4.81325579 3.6875 7.9375 C7.35711707 18.17735059 13.0908744 26.54048384 20.1796875 34.72265625 C22 37 22 37 23 40 C24.3213424 40.69012788 25.65661994 41.35381719 27 42 C28.22902672 43.1660699 29.41389073 44.37963963 30.5625 45.625 C34.61027093 49.81815401 39.06989761 53.05854429 43.875 56.3359375 C44.57625 56.88507813 45.2775 57.43421875 46 58 C46 58.66 46 59.32 46 60 C46.70382813 60.24621094 47.40765625 60.49242187 48.1328125 60.74609375 C51.39541575 62.17292705 53.98702441 63.97918936 56.875 66.0625 C63.4315955 70.70640112 70.21137089 74.87091277 77.14892578 78.91796875 C78.92647871 79.95702369 80.69597578 81.00874927 82.46484375 82.0625 C91.38985144 87.29686877 100.58937607 91.7162293 110 96 C110 96.33 110 96.66 110 97 C98.29057839 97.0928588 86.58124502 97.16384566 74.87152958 97.20724869 C69.4336702 97.22808459 63.99606356 97.25632928 58.55834961 97.30175781 C53.30636055 97.34535798 48.05461394 97.36916715 42.80245781 97.37950897 C40.80306624 97.38687492 38.80368729 97.4012588 36.80439949 97.42292023 C33.99439393 97.4521426 31.18537825 97.45594816 28.37524414 97.45410156 C27.55668442 97.46848267 26.73812469 97.48286377 25.89476013 97.49768066 C18.66458148 97.446584 12.78579167 95.29053982 7.1875 90.6875 C1.63080793 83.86070689 -0.15795143 78.19680169 -0.11352539 69.47753906 C-0.11374443 68.3501255 -0.11374443 68.3501255 -0.1139679 67.19993591 C-0.11327262 64.72180266 -0.10549826 62.24374508 -0.09765625 59.765625 C-0.0957907 58.04498333 -0.09436744 56.32434112 -0.09336853 54.60369873 C-0.08955413 50.07947315 -0.07973302 45.55527977 -0.06866455 41.03106689 C-0.05842729 36.41264278 -0.05386595 31.79421345 -0.04882812 27.17578125 C-0.0381098 18.11717337 -0.02104629 9.05858936 0 0 Z " fill="#000000" transform="translate(57,268)"/>
<path d="M0 0 C0.33 0 0.66 0 1 0 C1 1.98 1 3.96 1 6 C0.67 6 0.34 6 0 6 C0 4.02 0 2.04 0 0 Z " fill="#000000" transform="translate(357,240)"/>
<path d="" fill="#000000" transform="translate(0,0)"/>
<path d="" fill="#000000" transform="translate(0,0)"/>
<path d="" fill="#000000" transform="translate(0,0)"/>
<path d="" fill="#000000" transform="translate(0,0)"/>
<path d="" fill="#000000" transform="translate(0,0)"/>
<path d="" fill="#000000" transform="translate(0,0)"/>
<path d="" fill="#000000" transform="translate(0,0)"/>
<path d="" fill="#000000" transform="translate(0,0)"/>
<path d="" fill="#000000" transform="translate(0,0)"/>
<path d="" fill="#000000" transform="translate(0,0)"/>
<path d="" fill="#000000" transform="translate(0,0)"/>
<path d="" fill="#000000" transform="translate(0,0)"/>
<path d="" fill="#000000" transform="translate(0,0)"/>
<path d="" fill="#000000" transform="translate(0,0)"/>
<path d="" fill="#000000" transform="translate(0,0)"/>
<path d="" fill="#000000" transform="translate(0,0)"/>
<path d="" fill="#000000" transform="translate(0,0)"/>
<path d="" fill="#000000" transform="translate(0,0)"/>
<path d="" fill="#000000" transform="translate(0,0)"/>
<path d="" fill="#000000" transform="translate(0,0)"/>
<path d="" fill="#000000" transform="translate(0,0)"/>
<path d="" fill="#000000" transform="translate(0,0)"/>
<path d="" fill="#000000" transform="translate(0,0)"/>
<path d="" fill="#000000" transform="translate(0,0)"/>
<path d="" fill="#000000" transform="translate(0,0)"/>
<path d="" fill="#000000" transform="translate(0,0)"/>
<path d="" fill="#000000" transform="translate(0,0)"/>
<path d="" fill="#000000" transform="translate(0,0)"/>
<path d="" fill="#000000" transform="translate(0,0)"/>
<path d="" fill="#000000" transform="translate(0,0)"/>
<path d="" fill="#000000" transform="translate(0,0)"/>
<path d="" fill="#000000" transform="translate(0,0)"/>
</svg>
